<svg width="991" height="1107" viewBox="0 0 991 1107" fill="none" xmlns="http://www.w3.org/2000/svg">
<path d="M11.9125 274.913L50.6623 169.059C69.3278 118.069 109.23 77.7958 161.37 62.6399C321.559 16.0767 678.141 -63.1406 858.909 88.68C1077.13 271.957 974.894 737.976 905.143 972.721C884.484 1042.25 801.062 1064.78 745.037 1018.72C701.968 983.302 638.854 987.194 600.463 1027.63L570.422 1059.27C527.053 1104.95 460.137 1119.42 401.773 1095.73L305.122 1056.5C278.353 1045.63 249.194 1042.02 220.582 1046.01C111.585 1061.2 18.7202 967.11 35.3528 858.323L72.2349 617.093C77.3699 583.507 73.1566 549.156 60.0572 517.806L14.9409 409.835C-3.02182 366.847 -4.10334 318.664 11.9125 274.913Z" fill="#FF7A04"/>
</svg>
